solid topLeft
 facet normal  0.000000e+00 -1.000000e+00  0.000000e+00
   outer loop
     vertex -5.797100e+00  0.000000e+00  1.514300e+00
     vertex -5.797100e+00  0.000000e+00  5.193400e-01
     vertex -5.697300e+00  0.000000e+00  1.514300e+00
   endloop
 endfacet
 facet normal  0.000000e+00 -1.000000e+00  0.000000e+00
   outer loop
     vertex -5.797100e+00  1.000000e+00  1.514300e+00
     vertex -5.797100e+00  1.000000e+00  5.193400e-01
     vertex -5.697300e+00  1.000000e+00  1.514300e+00
   endloop
 endfacet
 facet normal  1.000000e+00 -0.000000e+00  0.000000e+00
   outer loop
     vertex -5.797100e+00  0.000000e+00  1.514300e+00
     vertex -5.797100e+00  0.000000e+00  5.193400e-01
     vertex -5.797100e+00  1.000000e+00  1.514300e+00
   endloop
 endfacet
 facet normal -9.950070e-01  0.000000e+00  9.980472e-02
   outer loop
     vertex -5.797100e+00  0.000000e+00  5.193400e-01
     vertex -5.697300e+00  0.000000e+00  1.514300e+00
     vertex -5.797100e+00  1.000000e+00  5.193400e-01
   endloop
 endfacet
 facet normal  0.000000e+00  0.000000e+00 -1.000000e+00
   outer loop
     vertex -5.697300e+00  0.000000e+00  1.514300e+00
     vertex -5.797100e+00  0.000000e+00  1.514300e+00
     vertex -5.697300e+00  1.000000e+00  1.514300e+00
   endloop
 endfacet
 facet normal -1.000000e+00  0.000000e+00 -0.000000e+00
   outer loop
     vertex -5.797100e+00  1.000000e+00  1.514300e+00
     vertex -5.797100e+00  1.000000e+00  5.193400e-01
     vertex -5.797100e+00  0.000000e+00  5.193400e-01
   endloop
 endfacet
 facet normal  9.950070e-01  0.000000e+00 -9.980472e-02
   outer loop
     vertex -5.797100e+00  1.000000e+00  5.193400e-01
     vertex -5.697300e+00  1.000000e+00  1.514300e+00
     vertex -5.697300e+00  0.000000e+00  1.514300e+00
   endloop
 endfacet
 facet normal  0.000000e+00  0.000000e+00  1.000000e+00
   outer loop
     vertex -5.697300e+00  1.000000e+00  1.514300e+00
     vertex -5.797100e+00  1.000000e+00  1.514300e+00
     vertex -5.797100e+00  0.000000e+00  1.514300e+00
   endloop
 endfacet
endsolid topLeft
