solid topRight
 facet normal  0.000000e+00 -1.000000e+00  0.000000e+00
   outer loop
     vertex -5.697300e+00  0.000000e+00  1.514300e+00
     vertex  5.884600e+00  0.000000e+00  3.522800e-01
     vertex  5.884600e+00  0.000000e+00  1.514300e+00
   endloop
 endfacet
 facet normal  0.000000e+00 -1.000000e+00  0.000000e+00
   outer loop
     vertex -5.697300e+00  1.000000e+00  1.514300e+00
     vertex  5.884600e+00  1.000000e+00  3.522800e-01
     vertex  5.884600e+00  1.000000e+00  1.514300e+00
   endloop
 endfacet
 facet normal  1.000000e+00 -0.000000e+00  0.000000e+00
   outer loop
     vertex  5.884600e+00  0.000000e+00  1.514300e+00
     vertex  5.884600e+00  0.000000e+00  3.522800e-01
     vertex  5.884600e+00  1.000000e+00  1.514300e+00
   endloop
 endfacet
 facet normal -9.982950e-02  0.000000e+00 -9.950045e-01
   outer loop
     vertex  5.884600e+00  0.000000e+00  3.522800e-01
     vertex -5.697300e+00  0.000000e+00  1.514300e+00
     vertex  5.884600e+00  1.000000e+00  3.522800e-01
   endloop
 endfacet
 facet normal  0.000000e+00  0.000000e+00  1.000000e+00
   outer loop
     vertex -5.697300e+00  0.000000e+00  1.514300e+00
     vertex  5.884600e+00  0.000000e+00  1.514300e+00
     vertex -5.697300e+00  1.000000e+00  1.514300e+00
   endloop
 endfacet
 facet normal -1.000000e+00  0.000000e+00 -0.000000e+00
   outer loop
     vertex  5.884600e+00  1.000000e+00  1.514300e+00
     vertex  5.884600e+00  1.000000e+00  3.522800e-01
     vertex  5.884600e+00  0.000000e+00  3.522800e-01
   endloop
 endfacet
 facet normal  9.982950e-02  0.000000e+00  9.950045e-01
   outer loop
     vertex  5.884600e+00  1.000000e+00  3.522800e-01
     vertex -5.697300e+00  1.000000e+00  1.514300e+00
     vertex -5.697300e+00  0.000000e+00  1.514300e+00
   endloop
 endfacet
 facet normal  0.000000e+00  0.000000e+00 -1.000000e+00
   outer loop
     vertex -5.697300e+00  1.000000e+00  1.514300e+00
     vertex  5.884600e+00  1.000000e+00  1.514300e+00
     vertex  5.884600e+00  0.000000e+00  1.514300e+00
   endloop
 endfacet
endsolid topRight
