solid botLeft
 facet normal  0.000000e+00 -1.000000e+00  0.000000e+00
   outer loop
     vertex -5.797100e+00  0.000000e+00  5.193400e-01
     vertex -5.797100e+00  0.000000e+00 -6.427200e-01
     vertex  5.784700e+00  0.000000e+00 -6.427200e-01
   endloop
 endfacet
 facet normal  0.000000e+00 -1.000000e+00  0.000000e+00
   outer loop
     vertex -5.797100e+00  1.000000e+00  5.193400e-01
     vertex -5.797100e+00  1.000000e+00 -6.427200e-01
     vertex  5.784700e+00  1.000000e+00 -6.427200e-01
   endloop
 endfacet
 facet normal -1.000000e+00  0.000000e+00  0.000000e+00
   outer loop
     vertex -5.797100e+00  0.000000e+00 -6.427200e-01
     vertex -5.797100e+00  0.000000e+00  5.193400e-01
     vertex -5.797100e+00  1.000000e+00 -6.427200e-01
   endloop
 endfacet
 facet normal  9.983375e-02 -0.000000e+00  9.950041e-01
   outer loop
     vertex -5.797100e+00  0.000000e+00  5.193400e-01
     vertex  5.784700e+00  0.000000e+00 -6.427200e-01
     vertex -5.797100e+00  1.000000e+00  5.193400e-01
   endloop
 endfacet
 facet normal  0.000000e+00  0.000000e+00 -1.000000e+00
   outer loop
     vertex  5.784700e+00  0.000000e+00 -6.427200e-01
     vertex -5.797100e+00  0.000000e+00 -6.427200e-01
     vertex  5.784700e+00  1.000000e+00 -6.427200e-01
   endloop
 endfacet
 facet normal  1.000000e+00  0.000000e+00 -0.000000e+00
   outer loop
     vertex -5.797100e+00  1.000000e+00 -6.427200e-01
     vertex -5.797100e+00  1.000000e+00  5.193400e-01
     vertex -5.797100e+00  0.000000e+00  5.193400e-01
   endloop
 endfacet
 facet normal -9.983375e-02  0.000000e+00 -9.950041e-01
   outer loop
     vertex -5.797100e+00  1.000000e+00  5.193400e-01
     vertex  5.784700e+00  1.000000e+00 -6.427200e-01
     vertex  5.784700e+00  0.000000e+00 -6.427200e-01
   endloop
 endfacet
 facet normal  0.000000e+00  0.000000e+00  1.000000e+00
   outer loop
     vertex  5.784700e+00  1.000000e+00 -6.427200e-01
     vertex -5.797100e+00  1.000000e+00 -6.427200e-01
     vertex -5.797100e+00  0.000000e+00 -6.427200e-01
   endloop
 endfacet
endsolid botLeft
