solid botRight
 facet normal  0.000000e+00 -1.000000e+00  0.000000e+00
   outer loop
     vertex  5.784700e+00  0.000000e+00 -6.427200e-01
     vertex  5.884600e+00  0.000000e+00 -6.427200e-01
     vertex  5.884600e+00  0.000000e+00  3.522800e-01
   endloop
 endfacet
 facet normal  0.000000e+00 -1.000000e+00  0.000000e+00
   outer loop
     vertex  5.784700e+00  1.000000e+00 -6.427200e-01
     vertex  5.884600e+00  1.000000e+00 -6.427200e-01
     vertex  5.884600e+00  1.000000e+00  3.522800e-01
   endloop
 endfacet
 facet normal -9.949975e-01  0.000000e+00  9.989975e-02
   outer loop
     vertex  5.784700e+00  0.000000e+00 -6.427200e-01
     vertex  5.884600e+00  0.000000e+00  3.522800e-01
     vertex  5.784700e+00  1.000000e+00 -6.427200e-01
   endloop
 endfacet
 facet normal  1.000000e+00 -0.000000e+00  0.000000e+00
   outer loop
     vertex  5.884600e+00  0.000000e+00  3.522800e-01
     vertex  5.884600e+00  0.000000e+00 -6.427200e-01
     vertex  5.884600e+00  1.000000e+00  3.522800e-01
   endloop
 endfacet
 facet normal  0.000000e+00  0.000000e+00 -1.000000e+00
   outer loop
     vertex  5.884600e+00  0.000000e+00 -6.427200e-01
     vertex  5.784700e+00  0.000000e+00 -6.427200e-01
     vertex  5.884600e+00  1.000000e+00 -6.427200e-01
   endloop
 endfacet
 facet normal  9.949975e-01  0.000000e+00 -9.989975e-02
   outer loop
     vertex  5.784700e+00  1.000000e+00 -6.427200e-01
     vertex  5.884600e+00  1.000000e+00  3.522800e-01
     vertex  5.884600e+00  0.000000e+00  3.522800e-01
   endloop
 endfacet
 facet normal -1.000000e+00  0.000000e+00 -0.000000e+00
   outer loop
     vertex  5.884600e+00  1.000000e+00  3.522800e-01
     vertex  5.884600e+00  1.000000e+00 -6.427200e-01
     vertex  5.884600e+00  0.000000e+00 -6.427200e-01
   endloop
 endfacet
 facet normal  0.000000e+00  0.000000e+00  1.000000e+00
   outer loop
     vertex  5.884600e+00  1.000000e+00 -6.427200e-01
     vertex  5.784700e+00  1.000000e+00 -6.427200e-01
     vertex  5.784700e+00  0.000000e+00 -6.427200e-01
   endloop
 endfacet
endsolid botRight
